<?xml version="1.0" standalone="no"?>
<!DOCTYPE svg PUBLIC "-//W3C//DTD SVG 20010904//EN"
 "http://www.w3.org/TR/2001/REC-SVG-20010904/DTD/svg10.dtd">
<svg version="1.0" xmlns="http://www.w3.org/2000/svg"
 width="500.000000pt" height="500.000000pt" viewBox="0 0 500.000000 500.000000"
 preserveAspectRatio="xMidYMid meet">
<metadata>
Created by potrace 1.14, written by Peter Selinger 2001-2017
</metadata>
<g transform="translate(0.000000,500.000000) scale(0.100000,-0.100000)"
fill="#000000" stroke="none">
<path d="M0 2500 l0 -2500 2500 0 2500 0 0 2500 0 2500 -2500 0 -2500 0 0
-2500z m3631 1644 c62 -19 89 -36 179 -114 110 -96 159 -129 214 -145 52 -15
54 -17 130 -132 51 -79 84 -140 98 -186 19 -65 19 -71 4 -105 -9 -20 -30 -84
-46 -140 -34 -114 -46 -138 -101 -197 -31 -34 -38 -50 -44 -100 -4 -33 -29
-166 -55 -295 -57 -276 -76 -401 -85 -564 -6 -112 -10 -130 -69 -300 -35 -100
-71 -215 -81 -256 -16 -65 -25 -83 -69 -130 -32 -35 -79 -109 -125 -195 -41
-77 -79 -143 -85 -147 -5 -4 -18 -2 -29 4 -10 5 -20 8 -22 6 -14 -17 -36 -81
-33 -99 2 -18 -6 -28 -33 -44 -20 -11 -74 -53 -121 -93 -110 -96 -160 -129
-227 -149 -116 -34 -267 -6 -363 69 -291 227 -506 505 -627 811 -13 31 -26 57
-30 57 -30 -1 -73 -70 -121 -195 -25 -65 -46 -95 -66 -95 -7 0 -16 -10 -19
-22 -4 -13 -30 -59 -58 -102 -48 -73 -52 -85 -53 -140 0 -44 -6 -71 -21 -95
-12 -18 -27 -63 -33 -100 -16 -86 -51 -165 -84 -186 -15 -10 -47 -20 -72 -23
-47 -5 -48 -7 -29 -54 6 -15 2 -18 -28 -18 -19 0 -52 -7 -73 -16 -80 -33 -169
13 -264 138 -79 104 -118 176 -186 343 -31 77 -65 156 -75 176 -19 38 -17 49
11 49 16 0 16 5 -2 63 -10 34 -27 79 -38 100 l-19 38 78 167 c43 92 163 340
266 552 359 737 779 1620 856 1798 10 23 22 42 26 42 16 0 120 -43 208 -85
267 -128 457 -317 520 -517 30 -96 31 -108 4 -115 -14 -4 -18 -10 -13 -22 4
-9 8 -34 9 -56 1 -22 5 -50 9 -62 6 -18 2 -22 -22 -28 -29 -6 -29 -7 -19 -49
9 -39 6 -50 -28 -125 -29 -64 -36 -90 -31 -116 5 -27 2 -38 -19 -59 -14 -14
-29 -26 -33 -26 -4 0 -7 -201 -7 -448 0 -340 3 -464 14 -519 8 -40 18 -73 23
-73 5 0 37 19 71 42 129 88 254 241 345 423 121 243 175 474 283 1194 9 58 20
92 35 110 49 59 80 140 149 391 24 87 59 180 68 180 2 0 28 -7 58 -16z"/>
</g>
</svg>
